<mxfile host="app.diagrams.net" modified="2024-02-27T17:04:01.439Z" agent="Mozilla/5.0 (Windows NT 10.0; Win64; x64) AppleWebKit/537.36 (KHTML, like Gecko) Chrome/122.0.0.0 Safari/537.36" etag="XTyAzm0PDVBbtUHt6Wb2" version="23.1.6" type="github">
  <diagram name="Page-1" id="929967ad-93f9-6ef4-fab6-5d389245f69c">
    <mxGraphModel dx="2345" dy="964" grid="1" gridSize="10" guides="1" tooltips="1" connect="1" arrows="1" fold="1" page="1" pageScale="1.5" pageWidth="1169" pageHeight="826" background="none" math="0" shadow="0">
      <root>
        <mxCell id="0" style=";html=1;" />
        <mxCell id="1" style=";html=1;" parent="0" />
        <mxCell id="V-o6IrvXHarWNvLIRAWG-5" value="" style="rounded=0;whiteSpace=wrap;html=1;strokeWidth=3;" parent="1" vertex="1">
          <mxGeometry x="157" y="150" width="1440" height="980" as="geometry" />
        </mxCell>
        <mxCell id="V-o6IrvXHarWNvLIRAWG-6" value="Use case diagram of Enterprise Resource Planning" style="rounded=0;whiteSpace=wrap;html=1;strokeColor=#000000;fontStyle=1;fontSize=40;strokeWidth=2;" parent="1" vertex="1">
          <mxGeometry x="150" y="1160" width="1440" height="60" as="geometry" />
        </mxCell>
        <mxCell id="V-o6IrvXHarWNvLIRAWG-14" value="Student" style="shape=umlActor;verticalLabelPosition=bottom;verticalAlign=top;html=1;outlineConnect=0;fontStyle=1;labelBackgroundColor=none;fontSize=18;strokeWidth=2;" parent="1" vertex="1">
          <mxGeometry x="60" y="301" width="60" height="110" as="geometry" />
        </mxCell>
        <mxCell id="V-o6IrvXHarWNvLIRAWG-15" value="Teacher" style="shape=umlActor;verticalLabelPosition=bottom;verticalAlign=top;html=1;outlineConnect=0;fontStyle=1;labelBackgroundColor=none;fontSize=18;strokeWidth=2;" parent="1" vertex="1">
          <mxGeometry x="50" y="900" width="60" height="110" as="geometry" />
        </mxCell>
        <mxCell id="V-o6IrvXHarWNvLIRAWG-17" value="Management" style="shape=umlActor;verticalLabelPosition=bottom;verticalAlign=top;html=1;outlineConnect=0;fontSize=18;fontStyle=1;strokeWidth=2;" parent="1" vertex="1">
          <mxGeometry x="1660" y="570" width="70" height="120" as="geometry" />
        </mxCell>
        <mxCell id="hBCHNtJs0A2A4W39Nb5m-1" value="" style="ellipse;whiteSpace=wrap;html=1;strokeWidth=2;" parent="1" vertex="1">
          <mxGeometry x="1340" y="200" width="150" height="80" as="geometry" />
        </mxCell>
        <mxCell id="V-o6IrvXHarWNvLIRAWG-18" value="Doubts Section" style="ellipse;whiteSpace=wrap;html=1;strokeWidth=2;" parent="1" vertex="1">
          <mxGeometry x="533" y="236" width="120" height="80" as="geometry" />
        </mxCell>
        <mxCell id="hBCHNtJs0A2A4W39Nb5m-2" value="" style="ellipse;whiteSpace=wrap;html=1;strokeWidth=2;" parent="1" vertex="1">
          <mxGeometry x="1340" y="340" width="150" height="80" as="geometry" />
        </mxCell>
        <mxCell id="hBCHNtJs0A2A4W39Nb5m-3" value="" style="ellipse;whiteSpace=wrap;html=1;strokeWidth=2;" parent="1" vertex="1">
          <mxGeometry x="1340" y="450" width="150" height="80" as="geometry" />
        </mxCell>
        <mxCell id="V-o6IrvXHarWNvLIRAWG-20" value="Login&amp;nbsp;" style="ellipse;whiteSpace=wrap;html=1;strokeWidth=2;" parent="1" vertex="1">
          <mxGeometry x="181" y="910" width="120" height="75" as="geometry" />
        </mxCell>
        <mxCell id="jZamUbzunlKy1R4ZV1XB-1" value="Fee Payment" style="ellipse;whiteSpace=wrap;html=1;strokeWidth=2;" parent="1" vertex="1">
          <mxGeometry x="533" y="353" width="120" height="80" as="geometry" />
        </mxCell>
        <mxCell id="hBCHNtJs0A2A4W39Nb5m-6" value="" style="ellipse;whiteSpace=wrap;html=1;strokeWidth=2;" parent="1" vertex="1">
          <mxGeometry x="1340" y="570" width="150" height="80" as="geometry" />
        </mxCell>
        <mxCell id="nRynT5b67kiXr0Bfe8Td-11" style="edgeStyle=orthogonalEdgeStyle;rounded=0;orthogonalLoop=1;jettySize=auto;html=1;exitX=1;exitY=0.5;exitDx=0;exitDy=0;entryX=0;entryY=0.5;entryDx=0;entryDy=0;strokeWidth=3;dashed=1;dashPattern=8 8;" parent="1" source="V-o6IrvXHarWNvLIRAWG-21" target="V-o6IrvXHarWNvLIRAWG-23" edge="1">
          <mxGeometry relative="1" as="geometry" />
        </mxCell>
        <mxCell id="jZamUbzunlKy1R4ZV1XB-2" value="View marks" style="ellipse;whiteSpace=wrap;html=1;strokeWidth=2;" parent="1" vertex="1">
          <mxGeometry x="533" y="461" width="120" height="80" as="geometry" />
        </mxCell>
        <mxCell id="V-o6IrvXHarWNvLIRAWG-21" value="User Profile" style="ellipse;whiteSpace=wrap;html=1;strokeWidth=2;" parent="1" vertex="1">
          <mxGeometry x="370" y="910" width="120" height="80" as="geometry" />
        </mxCell>
        <mxCell id="hBCHNtJs0A2A4W39Nb5m-7" value="" style="ellipse;whiteSpace=wrap;html=1;strokeWidth=2;" parent="1" vertex="1">
          <mxGeometry x="1340" y="690" width="150" height="80" as="geometry" />
        </mxCell>
        <mxCell id="V-o6IrvXHarWNvLIRAWG-22" value="Attendence" style="ellipse;whiteSpace=wrap;html=1;strokeWidth=2;" parent="1" vertex="1">
          <mxGeometry x="560" y="800" width="120" height="80" as="geometry" />
        </mxCell>
        <mxCell id="hBCHNtJs0A2A4W39Nb5m-8" value="" style="ellipse;whiteSpace=wrap;html=1;strokeWidth=2;" parent="1" vertex="1">
          <mxGeometry x="1340" y="800" width="150" height="80" as="geometry" />
        </mxCell>
        <mxCell id="V-o6IrvXHarWNvLIRAWG-23" value="Exam Marks" style="ellipse;whiteSpace=wrap;html=1;strokeWidth=2;" parent="1" vertex="1">
          <mxGeometry x="610" y="910" width="120" height="80" as="geometry" />
        </mxCell>
        <mxCell id="hBCHNtJs0A2A4W39Nb5m-9" value="Login" style="text;html=1;align=center;verticalAlign=middle;whiteSpace=wrap;rounded=0;strokeWidth=2;" parent="1" vertex="1">
          <mxGeometry x="1385" y="225" width="60" height="30" as="geometry" />
        </mxCell>
        <mxCell id="V-o6IrvXHarWNvLIRAWG-24" value="Schedule" style="ellipse;whiteSpace=wrap;html=1;strokeWidth=2;" parent="1" vertex="1">
          <mxGeometry x="560" y="1020" width="120" height="80" as="geometry" />
        </mxCell>
        <mxCell id="hBCHNtJs0A2A4W39Nb5m-10" value="Register" style="text;html=1;align=center;verticalAlign=middle;whiteSpace=wrap;rounded=0;strokeWidth=2;" parent="1" vertex="1">
          <mxGeometry x="1385" y="365" width="60" height="30" as="geometry" />
        </mxCell>
        <mxCell id="hBCHNtJs0A2A4W39Nb5m-11" value="Fee Management" style="text;html=1;align=center;verticalAlign=middle;whiteSpace=wrap;rounded=0;strokeWidth=2;" parent="1" vertex="1">
          <mxGeometry x="1385" y="475" width="60" height="30" as="geometry" />
        </mxCell>
        <mxCell id="hBCHNtJs0A2A4W39Nb5m-12" value="Perform Analysis" style="text;html=1;align=center;verticalAlign=middle;whiteSpace=wrap;rounded=0;strokeWidth=2;" parent="1" vertex="1">
          <mxGeometry x="1385" y="595" width="60" height="30" as="geometry" />
        </mxCell>
        <mxCell id="hBCHNtJs0A2A4W39Nb5m-13" value="Schedule&lt;span style=&quot;white-space: pre;&quot;&gt;&#x9;&lt;/span&gt;" style="text;html=1;align=center;verticalAlign=middle;whiteSpace=wrap;rounded=0;strokeWidth=2;" parent="1" vertex="1">
          <mxGeometry x="1385" y="715" width="60" height="30" as="geometry" />
        </mxCell>
        <mxCell id="hBCHNtJs0A2A4W39Nb5m-14" value="View Feedback" style="text;html=1;align=center;verticalAlign=middle;whiteSpace=wrap;rounded=0;strokeWidth=2;" parent="1" vertex="1">
          <mxGeometry x="1385" y="825" width="60" height="30" as="geometry" />
        </mxCell>
        <mxCell id="nRynT5b67kiXr0Bfe8Td-1" value="Modify / Add / Delete" style="ellipse;whiteSpace=wrap;html=1;strokeWidth=2;" parent="1" vertex="1">
          <mxGeometry x="817" y="855" width="120" height="80" as="geometry" />
        </mxCell>
        <mxCell id="nRynT5b67kiXr0Bfe8Td-2" value="Search Student by ID" style="ellipse;whiteSpace=wrap;html=1;strokeWidth=2;" parent="1" vertex="1">
          <mxGeometry x="817" y="970" width="120" height="80" as="geometry" />
        </mxCell>
        <mxCell id="jZamUbzunlKy1R4ZV1XB-6" value="&amp;lt;&amp;lt;include&amp;gt;&amp;gt;" style="text;html=1;align=center;verticalAlign=middle;whiteSpace=wrap;rounded=0;strokeWidth=3;fontStyle=1" parent="1" vertex="1">
          <mxGeometry x="663" y="245" width="90" height="37" as="geometry" />
        </mxCell>
        <mxCell id="jZamUbzunlKy1R4ZV1XB-7" value="GMails" style="ellipse;whiteSpace=wrap;html=1;strokeWidth=2;" parent="1" vertex="1">
          <mxGeometry x="763" y="235" width="120" height="80" as="geometry" />
        </mxCell>
        <mxCell id="jZamUbzunlKy1R4ZV1XB-9" value="" style="endArrow=none;dashed=1;html=1;rounded=0;strokeWidth=2;" parent="1" edge="1">
          <mxGeometry width="50" height="50" relative="1" as="geometry">
            <mxPoint x="540" y="295" as="sourcePoint" />
            <mxPoint x="537.7777777777778" y="294.1111111111111" as="targetPoint" />
            <Array as="points" />
          </mxGeometry>
        </mxCell>
        <mxCell id="jZamUbzunlKy1R4ZV1XB-10" value="&amp;lt;&amp;lt;include&amp;gt;&amp;gt;" style="text;html=1;align=center;verticalAlign=middle;whiteSpace=wrap;rounded=0;strokeWidth=3;fontStyle=1" parent="1" vertex="1">
          <mxGeometry x="663" y="365" width="90" height="37" as="geometry" />
        </mxCell>
        <mxCell id="jZamUbzunlKy1R4ZV1XB-11" value="Gateway" style="ellipse;whiteSpace=wrap;html=1;strokeWidth=2;" parent="1" vertex="1">
          <mxGeometry x="762" y="356" width="120" height="80" as="geometry" />
        </mxCell>
        <mxCell id="jZamUbzunlKy1R4ZV1XB-15" value="" style="endArrow=classic;html=1;rounded=0;entryX=0;entryY=0.5;entryDx=0;entryDy=0;exitX=1;exitY=0.5;exitDx=0;exitDy=0;dashed=1;strokeWidth=3;dashPattern=8 8;" parent="1" source="V-o6IrvXHarWNvLIRAWG-18" target="jZamUbzunlKy1R4ZV1XB-7" edge="1">
          <mxGeometry width="50" height="50" relative="1" as="geometry">
            <mxPoint x="653" y="281" as="sourcePoint" />
            <mxPoint x="703" y="231" as="targetPoint" />
          </mxGeometry>
        </mxCell>
        <mxCell id="hBCHNtJs0A2A4W39Nb5m-38" style="edgeStyle=orthogonalEdgeStyle;rounded=0;orthogonalLoop=1;jettySize=auto;html=1;exitX=1;exitY=0.5;exitDx=0;exitDy=0;entryX=0;entryY=0.5;entryDx=0;entryDy=0;dashed=1;dashPattern=8 8;strokeWidth=3;" parent="1" source="hBCHNtJs0A2A4W39Nb5m-23" target="hBCHNtJs0A2A4W39Nb5m-6" edge="1">
          <mxGeometry relative="1" as="geometry" />
        </mxCell>
        <mxCell id="nRynT5b67kiXr0Bfe8Td-12" value="" style="endArrow=classic;html=1;rounded=0;exitX=0.964;exitY=0.308;exitDx=0;exitDy=0;exitPerimeter=0;entryX=0.006;entryY=0.625;entryDx=0;entryDy=0;entryPerimeter=0;dashed=1;dashPattern=8 8;strokeWidth=3;" parent="1" source="V-o6IrvXHarWNvLIRAWG-23" target="nRynT5b67kiXr0Bfe8Td-1" edge="1">
          <mxGeometry width="50" height="50" relative="1" as="geometry">
            <mxPoint x="820" y="870" as="sourcePoint" />
            <mxPoint x="870" y="820" as="targetPoint" />
            <Array as="points" />
          </mxGeometry>
        </mxCell>
        <mxCell id="hBCHNtJs0A2A4W39Nb5m-23" value="" style="ellipse;whiteSpace=wrap;html=1;strokeWidth=2;" parent="1" vertex="1">
          <mxGeometry x="1107" y="570" width="150" height="80" as="geometry" />
        </mxCell>
        <mxCell id="nRynT5b67kiXr0Bfe8Td-13" value="" style="endArrow=classic;html=1;rounded=0;entryX=0.986;entryY=0.664;entryDx=0;entryDy=0;dashed=1;dashPattern=8 8;exitX=0.044;exitY=0.3;exitDx=0;exitDy=0;exitPerimeter=0;entryPerimeter=0;strokeWidth=3;" parent="1" source="nRynT5b67kiXr0Bfe8Td-2" target="V-o6IrvXHarWNvLIRAWG-23" edge="1">
          <mxGeometry width="50" height="50" relative="1" as="geometry">
            <mxPoint x="686" y="945" as="sourcePoint" />
            <mxPoint x="781" y="910" as="targetPoint" />
            <Array as="points" />
          </mxGeometry>
        </mxCell>
        <mxCell id="nRynT5b67kiXr0Bfe8Td-14" value="" style="endArrow=classic;html=1;rounded=0;exitX=0.927;exitY=0.261;exitDx=0;exitDy=0;exitPerimeter=0;dashed=1;dashPattern=8 8;strokeWidth=3;entryX=0.5;entryY=0;entryDx=0;entryDy=0;" parent="1" source="V-o6IrvXHarWNvLIRAWG-22" edge="1" target="nRynT5b67kiXr0Bfe8Td-1">
          <mxGeometry width="50" height="50" relative="1" as="geometry">
            <mxPoint x="820" y="870" as="sourcePoint" />
            <mxPoint x="840" y="850" as="targetPoint" />
            <Array as="points">
              <mxPoint x="870" y="820" />
            </Array>
          </mxGeometry>
        </mxCell>
        <mxCell id="hBCHNtJs0A2A4W39Nb5m-24" value="&amp;nbsp;Search Student by ID" style="text;html=1;align=center;verticalAlign=middle;whiteSpace=wrap;rounded=0;strokeWidth=2;" parent="1" vertex="1">
          <mxGeometry x="1152" y="595" width="55" height="30" as="geometry" />
        </mxCell>
        <mxCell id="nRynT5b67kiXr0Bfe8Td-15" value="&amp;lt;&amp;lt;Include&amp;gt;&amp;gt;" style="text;html=1;align=center;verticalAlign=middle;whiteSpace=wrap;rounded=0;strokeWidth=3;fontStyle=1" parent="1" vertex="1">
          <mxGeometry x="710" y="780" width="70" height="30" as="geometry" />
        </mxCell>
        <mxCell id="hBCHNtJs0A2A4W39Nb5m-25" value="" style="ellipse;whiteSpace=wrap;html=1;strokeWidth=2;" parent="1" vertex="1">
          <mxGeometry x="1107" y="690" width="150" height="80" as="geometry" />
        </mxCell>
        <mxCell id="hBCHNtJs0A2A4W39Nb5m-26" value="Modify/&lt;br&gt;Delete" style="text;html=1;align=center;verticalAlign=middle;whiteSpace=wrap;rounded=0;strokeWidth=2;" parent="1" vertex="1">
          <mxGeometry x="1152" y="715" width="60" height="30" as="geometry" />
        </mxCell>
        <mxCell id="hBCHNtJs0A2A4W39Nb5m-40" style="edgeStyle=orthogonalEdgeStyle;rounded=0;orthogonalLoop=1;jettySize=auto;html=1;exitX=1;exitY=0.5;exitDx=0;exitDy=0;entryX=0;entryY=0.5;entryDx=0;entryDy=0;dashed=1;dashPattern=8 8;strokeWidth=3;" parent="1" source="hBCHNtJs0A2A4W39Nb5m-27" target="hBCHNtJs0A2A4W39Nb5m-8" edge="1">
          <mxGeometry relative="1" as="geometry" />
        </mxCell>
        <mxCell id="hBCHNtJs0A2A4W39Nb5m-27" value="" style="ellipse;whiteSpace=wrap;html=1;strokeWidth=2;" parent="1" vertex="1">
          <mxGeometry x="1106" y="800" width="160" height="80" as="geometry" />
        </mxCell>
        <mxCell id="hBCHNtJs0A2A4W39Nb5m-28" value="By Teacher name" style="text;html=1;align=center;verticalAlign=middle;whiteSpace=wrap;rounded=0;strokeWidth=2;" parent="1" vertex="1">
          <mxGeometry x="1156" y="825" width="60" height="30" as="geometry" />
        </mxCell>
        <mxCell id="hBCHNtJs0A2A4W39Nb5m-29" style="edgeStyle=orthogonalEdgeStyle;rounded=0;orthogonalLoop=1;jettySize=auto;html=1;exitX=0.5;exitY=1;exitDx=0;exitDy=0;strokeWidth=2;" parent="1" source="hBCHNtJs0A2A4W39Nb5m-28" target="hBCHNtJs0A2A4W39Nb5m-28" edge="1">
          <mxGeometry relative="1" as="geometry" />
        </mxCell>
        <mxCell id="hBCHNtJs0A2A4W39Nb5m-34" value="&amp;lt;&amp;lt;extend&amp;gt;&amp;gt;" style="text;html=1;align=center;verticalAlign=middle;whiteSpace=wrap;rounded=0;strokeWidth=3;fontStyle=1" parent="1" vertex="1">
          <mxGeometry x="1190" y="460" width="60" height="30" as="geometry" />
        </mxCell>
        <mxCell id="hBCHNtJs0A2A4W39Nb5m-36" value="&amp;lt;&amp;lt;extend&amp;gt;&amp;gt;" style="text;html=1;align=center;verticalAlign=middle;whiteSpace=wrap;rounded=0;strokeWidth=3;fontStyle=1" parent="1" vertex="1">
          <mxGeometry x="1266" y="560" width="60" height="30" as="geometry" />
        </mxCell>
        <mxCell id="hBCHNtJs0A2A4W39Nb5m-39" value="&amp;lt;&amp;lt;include&amp;gt;&amp;gt;" style="text;html=1;align=center;verticalAlign=middle;whiteSpace=wrap;rounded=0;strokeWidth=3;fontStyle=1" parent="1" vertex="1">
          <mxGeometry x="1270" y="690" width="60" height="30" as="geometry" />
        </mxCell>
        <mxCell id="hBCHNtJs0A2A4W39Nb5m-41" value="&amp;lt;&amp;lt;extend&amp;gt;&amp;gt;" style="text;html=1;align=center;verticalAlign=middle;whiteSpace=wrap;rounded=0;strokeWidth=3;fontStyle=1" parent="1" vertex="1">
          <mxGeometry x="1266" y="790" width="60" height="30" as="geometry" />
        </mxCell>
        <mxCell id="jZamUbzunlKy1R4ZV1XB-18" value="" style="endArrow=classic;html=1;rounded=0;entryX=0;entryY=0.5;entryDx=0;entryDy=0;exitX=1;exitY=0.5;exitDx=0;exitDy=0;dashed=1;strokeWidth=3;dashPattern=8 8;" parent="1" edge="1">
          <mxGeometry width="50" height="50" relative="1" as="geometry">
            <mxPoint x="653" y="398.5" as="sourcePoint" />
            <mxPoint x="763" y="397.5" as="targetPoint" />
          </mxGeometry>
        </mxCell>
        <mxCell id="nRynT5b67kiXr0Bfe8Td-16" value="&amp;lt;&amp;lt;Include&amp;gt;&amp;gt;" style="text;html=1;align=center;verticalAlign=middle;whiteSpace=wrap;rounded=0;rotation=-15;strokeWidth=3;fontStyle=1" parent="1" vertex="1">
          <mxGeometry x="730" y="885" width="70" height="30" as="geometry" />
        </mxCell>
        <mxCell id="jZamUbzunlKy1R4ZV1XB-19" value="Schedule" style="ellipse;whiteSpace=wrap;html=1;strokeWidth=2;" parent="1" vertex="1">
          <mxGeometry x="533" y="677" width="120" height="80" as="geometry" />
        </mxCell>
        <mxCell id="nRynT5b67kiXr0Bfe8Td-17" value="&amp;lt;&amp;lt;Extend&amp;gt;&amp;gt;" style="text;html=1;align=center;verticalAlign=middle;whiteSpace=wrap;rounded=0;rotation=15;strokeWidth=3;fontStyle=1" parent="1" vertex="1">
          <mxGeometry x="730" y="990" width="70" height="30" as="geometry" />
        </mxCell>
        <mxCell id="jZamUbzunlKy1R4ZV1XB-20" value="Attendance" style="ellipse;whiteSpace=wrap;html=1;strokeWidth=2;" parent="1" vertex="1">
          <mxGeometry x="533" y="565" width="120" height="80" as="geometry" />
        </mxCell>
        <mxCell id="nRynT5b67kiXr0Bfe8Td-21" value="" style="endArrow=classic;html=1;rounded=0;exitX=1;exitY=1;exitDx=0;exitDy=0;entryX=0;entryY=0;entryDx=0;entryDy=0;strokeWidth=3;dashed=1;dashPattern=8 8;" parent="1" source="V-o6IrvXHarWNvLIRAWG-21" target="V-o6IrvXHarWNvLIRAWG-24" edge="1">
          <mxGeometry width="50" height="50" relative="1" as="geometry">
            <mxPoint x="650" y="1010" as="sourcePoint" />
            <mxPoint x="700" y="960" as="targetPoint" />
          </mxGeometry>
        </mxCell>
        <mxCell id="jZamUbzunlKy1R4ZV1XB-21" value="" style="endArrow=classic;html=1;rounded=0;dashed=1;entryX=0.188;entryY=0.357;entryDx=0;entryDy=0;entryPerimeter=0;strokeWidth=3;dashPattern=8 8;" parent="1" edge="1">
          <mxGeometry width="50" height="50" relative="1" as="geometry">
            <mxPoint x="762" y="505.14" as="sourcePoint" />
            <mxPoint x="652.72" y="504.9999999999999" as="targetPoint" />
          </mxGeometry>
        </mxCell>
        <mxCell id="nRynT5b67kiXr0Bfe8Td-22" value="" style="endArrow=classic;html=1;rounded=0;exitX=1;exitY=0;exitDx=0;exitDy=0;entryX=0;entryY=1;entryDx=0;entryDy=0;strokeWidth=3;dashed=1;dashPattern=8 8;" parent="1" source="V-o6IrvXHarWNvLIRAWG-21" target="V-o6IrvXHarWNvLIRAWG-22" edge="1">
          <mxGeometry width="50" height="50" relative="1" as="geometry">
            <mxPoint x="440" y="810" as="sourcePoint" />
            <mxPoint x="588" y="1042" as="targetPoint" />
          </mxGeometry>
        </mxCell>
        <mxCell id="jZamUbzunlKy1R4ZV1XB-22" value="Filter" style="ellipse;whiteSpace=wrap;html=1;strokeWidth=2;" parent="1" vertex="1">
          <mxGeometry x="762" y="461" width="120" height="80" as="geometry" />
        </mxCell>
        <mxCell id="nRynT5b67kiXr0Bfe8Td-23" value="" style="endArrow=classic;html=1;rounded=0;exitX=1;exitY=0.5;exitDx=0;exitDy=0;strokeWidth=3;dashed=1;dashPattern=8 8;" parent="1" source="V-o6IrvXHarWNvLIRAWG-20" target="V-o6IrvXHarWNvLIRAWG-21" edge="1">
          <mxGeometry width="50" height="50" relative="1" as="geometry">
            <mxPoint x="730" y="870" as="sourcePoint" />
            <mxPoint x="780" y="820" as="targetPoint" />
          </mxGeometry>
        </mxCell>
        <mxCell id="jZamUbzunlKy1R4ZV1XB-23" value="&amp;lt;&amp;lt;Extend&amp;gt;&amp;gt;" style="text;html=1;align=center;verticalAlign=middle;whiteSpace=wrap;rounded=0;strokeWidth=3;fontStyle=1" parent="1" vertex="1">
          <mxGeometry x="673" y="438" width="90" height="37" as="geometry" />
        </mxCell>
        <mxCell id="cRJBDQuy2q4eRZoE2DI2-5" value="" style="endArrow=classic;html=1;rounded=0;entryX=0.976;entryY=0.625;entryDx=0;entryDy=0;entryPerimeter=0;exitX=0.016;exitY=0.636;exitDx=0;exitDy=0;exitPerimeter=0;dashed=1;dashPattern=8 8;strokeWidth=3;" parent="1" source="hBCHNtJs0A2A4W39Nb5m-7" target="hBCHNtJs0A2A4W39Nb5m-25" edge="1">
          <mxGeometry width="50" height="50" relative="1" as="geometry">
            <mxPoint x="1390" y="650" as="sourcePoint" />
            <mxPoint x="1440" y="600" as="targetPoint" />
          </mxGeometry>
        </mxCell>
        <mxCell id="cRJBDQuy2q4eRZoE2DI2-6" value="Register" style="ellipse;whiteSpace=wrap;html=1;fontSize=12;fontStyle=0;strokeWidth=2;" parent="1" vertex="1">
          <mxGeometry x="190" y="1030" width="120" height="80" as="geometry" />
        </mxCell>
        <mxCell id="cRJBDQuy2q4eRZoE2DI2-7" value="" style="endArrow=classic;html=1;rounded=0;entryX=0.5;entryY=1;entryDx=0;entryDy=0;exitX=0.401;exitY=0.018;exitDx=0;exitDy=0;exitPerimeter=0;strokeWidth=3;dashed=1;dashPattern=8 8;endSize=3;" parent="1" source="cRJBDQuy2q4eRZoE2DI2-6" target="V-o6IrvXHarWNvLIRAWG-20" edge="1">
          <mxGeometry width="50" height="50" relative="1" as="geometry">
            <mxPoint x="600" y="980" as="sourcePoint" />
            <mxPoint x="650" y="930" as="targetPoint" />
          </mxGeometry>
        </mxCell>
        <mxCell id="cRJBDQuy2q4eRZoE2DI2-8" value="" style="endArrow=none;html=1;rounded=0;exitX=1;exitY=0.3333333333333333;exitDx=0;exitDy=0;exitPerimeter=0;strokeWidth=3;entryX=0;entryY=0.5;entryDx=0;entryDy=0;" parent="1" source="V-o6IrvXHarWNvLIRAWG-15" edge="1" target="V-o6IrvXHarWNvLIRAWG-20">
          <mxGeometry width="50" height="50" relative="1" as="geometry">
            <mxPoint x="740" y="860" as="sourcePoint" />
            <mxPoint x="203" y="950" as="targetPoint" />
          </mxGeometry>
        </mxCell>
        <mxCell id="cRJBDQuy2q4eRZoE2DI2-10" value="" style="endArrow=none;html=1;rounded=0;entryX=0;entryY=0.5;entryDx=0;entryDy=0;strokeWidth=3;exitX=1;exitY=0.3333333333333333;exitDx=0;exitDy=0;exitPerimeter=0;" parent="1" source="V-o6IrvXHarWNvLIRAWG-15" target="cRJBDQuy2q4eRZoE2DI2-6" edge="1">
          <mxGeometry width="50" height="50" relative="1" as="geometry">
            <mxPoint x="110" y="930" as="sourcePoint" />
            <mxPoint x="197" y="898" as="targetPoint" />
          </mxGeometry>
        </mxCell>
        <mxCell id="Rp6G-IGlCElSOM3n5_Gu-1" value="Login&amp;nbsp;" style="ellipse;whiteSpace=wrap;html=1;strokeWidth=2;" parent="1" vertex="1">
          <mxGeometry x="180" y="200" width="110" height="80" as="geometry" />
        </mxCell>
        <mxCell id="Rp6G-IGlCElSOM3n5_Gu-2" value="Register" style="ellipse;whiteSpace=wrap;html=1;fontSize=12;fontStyle=0;strokeWidth=2;" parent="1" vertex="1">
          <mxGeometry x="181" y="325" width="120" height="80" as="geometry" />
        </mxCell>
        <mxCell id="Rp6G-IGlCElSOM3n5_Gu-3" value="User Profile" style="ellipse;whiteSpace=wrap;html=1;strokeWidth=2;" parent="1" vertex="1">
          <mxGeometry x="361" y="245" width="120" height="80" as="geometry" />
        </mxCell>
        <mxCell id="Rp6G-IGlCElSOM3n5_Gu-4" value="" style="endArrow=classic;html=1;rounded=0;entryX=0.007;entryY=0.391;entryDx=0;entryDy=0;entryPerimeter=0;exitX=1;exitY=0.5;exitDx=0;exitDy=0;dashed=1;dashPattern=8 8;strokeWidth=3;" parent="1" target="Rp6G-IGlCElSOM3n5_Gu-3" edge="1" source="Rp6G-IGlCElSOM3n5_Gu-1">
          <mxGeometry width="50" height="50" relative="1" as="geometry">
            <mxPoint x="320" y="255" as="sourcePoint" />
            <mxPoint x="361" y="205" as="targetPoint" />
          </mxGeometry>
        </mxCell>
        <mxCell id="Rp6G-IGlCElSOM3n5_Gu-5" value="" style="endArrow=classic;html=1;rounded=0;dashed=1;dashPattern=8 8;strokeWidth=3;exitX=0.5;exitY=0;exitDx=0;exitDy=0;" parent="1" edge="1" target="Rp6G-IGlCElSOM3n5_Gu-1" source="Rp6G-IGlCElSOM3n5_Gu-2">
          <mxGeometry width="50" height="50" relative="1" as="geometry">
            <mxPoint x="320" y="353" as="sourcePoint" />
            <mxPoint x="370" y="303" as="targetPoint" />
          </mxGeometry>
        </mxCell>
        <mxCell id="Rp6G-IGlCElSOM3n5_Gu-6" value="" style="endArrow=classic;html=1;rounded=0;strokeWidth=3;dashed=1;dashPattern=8 8;" parent="1" edge="1" target="V-o6IrvXHarWNvLIRAWG-18">
          <mxGeometry width="50" height="50" relative="1" as="geometry">
            <mxPoint x="481" y="280" as="sourcePoint" />
            <mxPoint x="530" y="280" as="targetPoint" />
          </mxGeometry>
        </mxCell>
        <mxCell id="Rp6G-IGlCElSOM3n5_Gu-7" value="" style="endArrow=classic;html=1;rounded=0;dashed=1;dashPattern=8 8;strokeWidth=3;" parent="1" edge="1">
          <mxGeometry width="50" height="50" relative="1" as="geometry">
            <mxPoint x="420" y="393" as="sourcePoint" />
            <mxPoint x="533" y="392.95" as="targetPoint" />
          </mxGeometry>
        </mxCell>
        <mxCell id="Rp6G-IGlCElSOM3n5_Gu-8" value="" style="endArrow=classic;html=1;rounded=0;dashed=1;dashPattern=8 8;strokeWidth=3;" parent="1" edge="1">
          <mxGeometry width="50" height="50" relative="1" as="geometry">
            <mxPoint x="422" y="500.14" as="sourcePoint" />
            <mxPoint x="533" y="500.09000000000003" as="targetPoint" />
          </mxGeometry>
        </mxCell>
        <mxCell id="Rp6G-IGlCElSOM3n5_Gu-9" value="" style="endArrow=classic;html=1;rounded=0;dashed=1;dashPattern=8 8;strokeWidth=3;" parent="1" edge="1">
          <mxGeometry width="50" height="50" relative="1" as="geometry">
            <mxPoint x="420" y="604" as="sourcePoint" />
            <mxPoint x="533" y="603.95" as="targetPoint" />
          </mxGeometry>
        </mxCell>
        <mxCell id="Rp6G-IGlCElSOM3n5_Gu-10" value="" style="endArrow=classic;html=1;rounded=0;dashed=1;dashPattern=8 8;strokeWidth=3;" parent="1" edge="1">
          <mxGeometry width="50" height="50" relative="1" as="geometry">
            <mxPoint x="420" y="714" as="sourcePoint" />
            <mxPoint x="533" y="713.95" as="targetPoint" />
          </mxGeometry>
        </mxCell>
        <mxCell id="Rp6G-IGlCElSOM3n5_Gu-11" value="" style="endArrow=none;html=1;rounded=0;entryX=0.5;entryY=1;entryDx=0;entryDy=0;dashed=1;dashPattern=8 8;strokeWidth=3;" parent="1" target="Rp6G-IGlCElSOM3n5_Gu-3" edge="1">
          <mxGeometry width="50" height="50" relative="1" as="geometry">
            <mxPoint x="421" y="710" as="sourcePoint" />
            <mxPoint x="210" y="439.8372093023256" as="targetPoint" />
          </mxGeometry>
        </mxCell>
        <mxCell id="2Nf4IjYtQNHr2JBCDfb3-4" value="&amp;lt;&amp;lt;Include&amp;gt;&amp;gt;" style="text;html=1;align=center;verticalAlign=middle;whiteSpace=wrap;rounded=0;rotation=30;strokeWidth=3;fontStyle=1" vertex="1" parent="1">
          <mxGeometry x="301" y="215" width="60" height="30" as="geometry" />
        </mxCell>
        <mxCell id="2Nf4IjYtQNHr2JBCDfb3-7" value="&amp;lt;&amp;lt;Include&amp;gt;&amp;gt;" style="text;html=1;align=center;verticalAlign=middle;whiteSpace=wrap;rounded=0;rotation=0;strokeWidth=3;fontStyle=1" vertex="1" parent="1">
          <mxGeometry x="450" y="356" width="60" height="30" as="geometry" />
        </mxCell>
        <mxCell id="2Nf4IjYtQNHr2JBCDfb3-8" value="&amp;lt;&amp;lt;Include&amp;gt;&amp;gt;" style="text;html=1;align=center;verticalAlign=middle;whiteSpace=wrap;rounded=0;rotation=0;strokeWidth=3;fontStyle=1" vertex="1" parent="1">
          <mxGeometry x="473" y="222.5" width="60" height="30" as="geometry" />
        </mxCell>
        <mxCell id="2Nf4IjYtQNHr2JBCDfb3-10" value="&amp;lt;&amp;lt;Include&amp;gt;&amp;gt;" style="text;html=1;align=center;verticalAlign=middle;whiteSpace=wrap;rounded=0;rotation=0;strokeWidth=3;fontStyle=1" vertex="1" parent="1">
          <mxGeometry x="440" y="460" width="60" height="30" as="geometry" />
        </mxCell>
        <mxCell id="2Nf4IjYtQNHr2JBCDfb3-11" value="&amp;lt;&amp;lt;Include&amp;gt;&amp;gt;" style="text;html=1;align=center;verticalAlign=middle;whiteSpace=wrap;rounded=0;rotation=0;strokeWidth=3;fontStyle=1" vertex="1" parent="1">
          <mxGeometry x="440" y="565" width="60" height="30" as="geometry" />
        </mxCell>
        <mxCell id="2Nf4IjYtQNHr2JBCDfb3-12" value="&amp;lt;&amp;lt;Include&amp;gt;&amp;gt;" style="text;html=1;align=center;verticalAlign=middle;whiteSpace=wrap;rounded=0;rotation=0;strokeWidth=3;fontStyle=1" vertex="1" parent="1">
          <mxGeometry x="440" y="670" width="60" height="30" as="geometry" />
        </mxCell>
        <mxCell id="2Nf4IjYtQNHr2JBCDfb3-14" value="&amp;lt;&amp;lt;Include&amp;gt;&amp;gt;" style="text;html=1;align=center;verticalAlign=middle;whiteSpace=wrap;rounded=0;rotation=0;strokeWidth=3;fontStyle=1" vertex="1" parent="1">
          <mxGeometry x="250" y="286" width="60" height="30" as="geometry" />
        </mxCell>
        <mxCell id="2Nf4IjYtQNHr2JBCDfb3-18" value="" style="endArrow=classic;html=1;rounded=0;entryX=0;entryY=0.5;entryDx=0;entryDy=0;exitX=0.5;exitY=0;exitDx=0;exitDy=0;dashed=1;dashPattern=8 8;strokeWidth=3;" edge="1" parent="1" source="hBCHNtJs0A2A4W39Nb5m-23" target="hBCHNtJs0A2A4W39Nb5m-3">
          <mxGeometry width="50" height="50" relative="1" as="geometry">
            <mxPoint x="760" y="630" as="sourcePoint" />
            <mxPoint x="810" y="580" as="targetPoint" />
            <Array as="points">
              <mxPoint x="1180" y="490" />
            </Array>
          </mxGeometry>
        </mxCell>
        <mxCell id="2Nf4IjYtQNHr2JBCDfb3-20" value="" style="endArrow=classic;html=1;rounded=0;exitX=0.5;exitY=1;exitDx=0;exitDy=0;entryX=1;entryY=0.5;entryDx=0;entryDy=0;dashed=1;dashPattern=8 8;strokeWidth=3;" edge="1" parent="1" source="2Nf4IjYtQNHr2JBCDfb3-27" target="hBCHNtJs0A2A4W39Nb5m-8">
          <mxGeometry width="50" height="50" relative="1" as="geometry">
            <mxPoint x="1070.0033333333322" y="215" as="sourcePoint" />
            <mxPoint x="1550" y="650" as="targetPoint" />
            <Array as="points">
              <mxPoint x="1190" y="320" />
              <mxPoint x="1415" y="320" />
              <mxPoint x="1580" y="320" />
              <mxPoint x="1580" y="840" />
            </Array>
          </mxGeometry>
        </mxCell>
        <mxCell id="2Nf4IjYtQNHr2JBCDfb3-24" value="" style="endArrow=classic;html=1;rounded=0;dashed=1;dashPattern=8 8;strokeWidth=3;" edge="1" parent="1">
          <mxGeometry width="50" height="50" relative="1" as="geometry">
            <mxPoint x="1580" y="610" as="sourcePoint" />
            <mxPoint x="1490" y="610" as="targetPoint" />
          </mxGeometry>
        </mxCell>
        <mxCell id="2Nf4IjYtQNHr2JBCDfb3-25" value="" style="endArrow=classic;html=1;rounded=0;entryX=1;entryY=0.5;entryDx=0;entryDy=0;dashed=1;dashPattern=8 8;strokeWidth=3;" edge="1" parent="1" target="hBCHNtJs0A2A4W39Nb5m-3">
          <mxGeometry width="50" height="50" relative="1" as="geometry">
            <mxPoint x="1580" y="490" as="sourcePoint" />
            <mxPoint x="1510" y="750" as="targetPoint" />
          </mxGeometry>
        </mxCell>
        <mxCell id="2Nf4IjYtQNHr2JBCDfb3-26" value="" style="endArrow=classic;html=1;rounded=0;entryX=1;entryY=0.5;entryDx=0;entryDy=0;dashed=1;dashPattern=8 8;strokeWidth=3;" edge="1" parent="1" target="hBCHNtJs0A2A4W39Nb5m-2">
          <mxGeometry width="50" height="50" relative="1" as="geometry">
            <mxPoint x="1580" y="380" as="sourcePoint" />
            <mxPoint x="1500" y="500" as="targetPoint" />
          </mxGeometry>
        </mxCell>
        <mxCell id="2Nf4IjYtQNHr2JBCDfb3-27" value="User Profile" style="ellipse;whiteSpace=wrap;html=1;strokeWidth=2;" vertex="1" parent="1">
          <mxGeometry x="1130" y="202" width="120" height="80" as="geometry" />
        </mxCell>
        <mxCell id="2Nf4IjYtQNHr2JBCDfb3-28" value="" style="endArrow=none;html=1;rounded=0;exitX=0;exitY=0.3333333333333333;exitDx=0;exitDy=0;exitPerimeter=0;entryX=1;entryY=0.5;entryDx=0;entryDy=0;strokeWidth=3;" edge="1" parent="1" source="V-o6IrvXHarWNvLIRAWG-17" target="hBCHNtJs0A2A4W39Nb5m-1">
          <mxGeometry width="50" height="50" relative="1" as="geometry">
            <mxPoint x="760" y="630" as="sourcePoint" />
            <mxPoint x="1460" y="280" as="targetPoint" />
            <Array as="points">
              <mxPoint x="1660" y="240" />
            </Array>
          </mxGeometry>
        </mxCell>
        <mxCell id="2Nf4IjYtQNHr2JBCDfb3-31" value="" style="endArrow=classic;html=1;rounded=0;exitX=0;exitY=0.5;exitDx=0;exitDy=0;entryX=1;entryY=0.5;entryDx=0;entryDy=0;strokeWidth=3;dashed=1;dashPattern=8 8;" edge="1" parent="1" source="hBCHNtJs0A2A4W39Nb5m-1" target="2Nf4IjYtQNHr2JBCDfb3-27">
          <mxGeometry width="50" height="50" relative="1" as="geometry">
            <mxPoint x="1060" y="630" as="sourcePoint" />
            <mxPoint x="1110" y="580" as="targetPoint" />
          </mxGeometry>
        </mxCell>
        <mxCell id="2Nf4IjYtQNHr2JBCDfb3-34" value="&amp;lt;&amp;lt;Include&amp;gt;&amp;gt;" style="text;html=1;align=center;verticalAlign=middle;whiteSpace=wrap;rounded=0;strokeWidth=3;fontStyle=1" vertex="1" parent="1">
          <mxGeometry x="1500" y="810" width="70" height="30" as="geometry" />
        </mxCell>
        <mxCell id="2Nf4IjYtQNHr2JBCDfb3-35" value="&amp;lt;&amp;lt;Include&amp;gt;&amp;gt;" style="text;html=1;align=center;verticalAlign=middle;whiteSpace=wrap;rounded=0;strokeWidth=3;fontStyle=1" vertex="1" parent="1">
          <mxGeometry x="1500" y="450" width="70" height="30" as="geometry" />
        </mxCell>
        <mxCell id="2Nf4IjYtQNHr2JBCDfb3-36" value="&amp;lt;&amp;lt;Include&amp;gt;&amp;gt;" style="text;html=1;align=center;verticalAlign=middle;whiteSpace=wrap;rounded=0;strokeWidth=3;fontStyle=1" vertex="1" parent="1">
          <mxGeometry x="1500" y="560" width="70" height="30" as="geometry" />
        </mxCell>
        <mxCell id="2Nf4IjYtQNHr2JBCDfb3-37" value="" style="endArrow=classic;html=1;rounded=0;entryX=1;entryY=0.5;entryDx=0;entryDy=0;dashed=1;dashPattern=8 8;strokeWidth=3;" edge="1" parent="1" target="hBCHNtJs0A2A4W39Nb5m-7">
          <mxGeometry width="50" height="50" relative="1" as="geometry">
            <mxPoint x="1580" y="730" as="sourcePoint" />
            <mxPoint x="1570" y="715" as="targetPoint" />
          </mxGeometry>
        </mxCell>
        <mxCell id="2Nf4IjYtQNHr2JBCDfb3-41" value="&amp;lt;&amp;lt;Include&amp;gt;&amp;gt;" style="text;html=1;align=center;verticalAlign=middle;whiteSpace=wrap;rounded=0;strokeWidth=3;fontStyle=1" vertex="1" parent="1">
          <mxGeometry x="1500" y="335" width="70" height="30" as="geometry" />
        </mxCell>
        <mxCell id="2Nf4IjYtQNHr2JBCDfb3-43" value="&amp;lt;&amp;lt;Include&amp;gt;&amp;gt;" style="text;html=1;align=center;verticalAlign=middle;whiteSpace=wrap;rounded=0;strokeWidth=3;fontStyle=1" vertex="1" parent="1">
          <mxGeometry x="1500" y="685" width="70" height="30" as="geometry" />
        </mxCell>
        <mxCell id="2Nf4IjYtQNHr2JBCDfb3-44" value="&amp;lt;&amp;lt;Include&amp;gt;&amp;gt;" style="text;html=1;align=center;verticalAlign=middle;whiteSpace=wrap;rounded=0;strokeWidth=3;fontStyle=1" vertex="1" parent="1">
          <mxGeometry x="1266" y="195" width="70" height="30" as="geometry" />
        </mxCell>
        <mxCell id="2Nf4IjYtQNHr2JBCDfb3-45" value="&amp;lt;&amp;lt;Include&amp;gt;&amp;gt;" style="text;html=1;align=center;verticalAlign=middle;whiteSpace=wrap;rounded=0;strokeWidth=3;fontStyle=1" vertex="1" parent="1">
          <mxGeometry x="310" y="885" width="70" height="30" as="geometry" />
        </mxCell>
        <mxCell id="2Nf4IjYtQNHr2JBCDfb3-46" value="&amp;lt;&amp;lt;Include&amp;gt;&amp;gt;" style="text;html=1;align=center;verticalAlign=middle;whiteSpace=wrap;rounded=0;strokeWidth=3;rotation=0;fontStyle=1" vertex="1" parent="1">
          <mxGeometry x="250" y="995" width="70" height="30" as="geometry" />
        </mxCell>
        <mxCell id="2Nf4IjYtQNHr2JBCDfb3-47" value="&amp;lt;&amp;lt;Include&amp;gt;&amp;gt;" style="text;html=1;align=center;verticalAlign=middle;whiteSpace=wrap;rounded=0;strokeWidth=3;rotation=-30;fontStyle=1" vertex="1" parent="1">
          <mxGeometry x="473" y="855" width="70" height="30" as="geometry" />
        </mxCell>
        <mxCell id="2Nf4IjYtQNHr2JBCDfb3-49" value="&amp;lt;&amp;lt;Include&amp;gt;&amp;gt;" style="text;html=1;align=center;verticalAlign=middle;whiteSpace=wrap;rounded=0;strokeWidth=3;rotation=30;fontStyle=1" vertex="1" parent="1">
          <mxGeometry x="468" y="1010" width="70" height="30" as="geometry" />
        </mxCell>
        <mxCell id="2Nf4IjYtQNHr2JBCDfb3-52" value="&amp;lt;&amp;lt;Include&amp;gt;&amp;gt;" style="text;html=1;align=center;verticalAlign=middle;whiteSpace=wrap;rounded=0;strokeWidth=3;rotation=0;fontStyle=1" vertex="1" parent="1">
          <mxGeometry x="510" y="910" width="70" height="30" as="geometry" />
        </mxCell>
        <mxCell id="2Nf4IjYtQNHr2JBCDfb3-56" value="" style="endArrow=none;html=1;rounded=0;exitX=1;exitY=0.3333333333333333;exitDx=0;exitDy=0;exitPerimeter=0;entryX=0;entryY=1;entryDx=0;entryDy=0;strokeWidth=3;" edge="1" parent="1" source="V-o6IrvXHarWNvLIRAWG-14" target="Rp6G-IGlCElSOM3n5_Gu-1">
          <mxGeometry width="50" height="50" relative="1" as="geometry">
            <mxPoint x="960" y="660" as="sourcePoint" />
            <mxPoint x="1010" y="610" as="targetPoint" />
          </mxGeometry>
        </mxCell>
        <mxCell id="2Nf4IjYtQNHr2JBCDfb3-57" value="" style="endArrow=none;html=1;rounded=0;exitX=1;exitY=0.3333333333333333;exitDx=0;exitDy=0;exitPerimeter=0;entryX=0;entryY=0.5;entryDx=0;entryDy=0;strokeWidth=3;" edge="1" parent="1" source="V-o6IrvXHarWNvLIRAWG-14" target="Rp6G-IGlCElSOM3n5_Gu-2">
          <mxGeometry width="50" height="50" relative="1" as="geometry">
            <mxPoint x="130" y="348" as="sourcePoint" />
            <mxPoint x="206" y="278" as="targetPoint" />
          </mxGeometry>
        </mxCell>
      </root>
    </mxGraphModel>
  </diagram>
</mxfile>
